<svg xmlns="http://www.w3.org/2000/svg" xmlns:xlink="http://www.w3.org/1999/xlink" width="33.1" height="37.67" viewBox="0 0 33.1 37.67"><defs><path id="fl3xa" d="M7.34 25.37l-.7-.7 2-2c.22-.23.34-.53.32-.85l-.1-.82c-.16-2.46 1-4.11 2.69-5.85l.71.71c-1.58 1.59-2.54 3-2.4 5.07l.06.85c.04.6-.18 1.2-.61 1.63z"/><path id="fl3xb" d="M16.25 34.28l-.7-.71L17 32.15c.36-.36.83-.59 1.33-.66l2.67-.38c.38-.07.72-.24 1-.51l3.33-3.24.7.72-3.33 3.24a3 3 0 0 1-1.6.78l-2.67.38c-.29.04-.56.17-.76.38z"/><path id="fl3xc" d="M14.07 38.67l-.71-.7 2.93-2.94-9.96-9.96L3.4 28l-.71-.71 3.64-3.64 11.38 11.38-3.64 3.64z"/><path id="fl3xd" d="M26.05 28.07l-.71-.7 4-4a1.3 1.3 0 0 0-1.82-1.86l-.58.58a.5.5 0 0 1-.85-.36.5.5 0 0 1 .15-.35l.55-.56.51-.52a1.27 1.27 0 0 0 0-1.8 1.3 1.3 0 0 0-1.84 0l-.55.56c-.2.19-.51.19-.71 0a.5.5 0 0 1-.15-.35c0-.14.05-.27.15-.36l1-1a1.27 1.27 0 0 0 0-1.8 1.29 1.29 0 0 0-1.84 0l-.31.3-.24.25a.5.5 0 0 1-.71 0 .5.5 0 0 1-.15-.35c0-.14.05-.27.15-.36l.24-.24a1.27 1.27 0 0 0 0-1.8 1.3 1.3 0 0 0-1.84 0l-6.44 6.35-.71-.7 6.43-6.43a2.28 2.28 0 0 1 3.22 0c.44.43.69 1.01.7 1.63.78-.2 1.6.03 2.16.6.6.59.84 1.47.61 2.29.57.01 1.12.25 1.52.67.65.62.87 1.57.57 2.42a2.31 2.31 0 0 1 1.44 3.9z"/><path id="fl3xe" d="M12.64 37.24l-.71-.71.78-.79.71.71z"/><path id="fl3xf" d="M14.03 35.86l-.71-.71.78-.79.71.71z"/><path id="fl3xg" d="M30.58 34.14c-.48 0-.93-.18-1.27-.52l-4.76-4.76.71-.71L30 32.91a.78.78 0 0 0 1.11 0l1.76-1.75c.3-.31.3-.8 0-1.12l-4.76-4.75.71-.71 4.75 4.76a1.77 1.77 0 0 1 0 2.52l-1.75 1.76c-.33.33-.77.52-1.24.52z"/><path id="fl3xh" d="M14.37 18.68l-2.92-2.92a1.09 1.09 0 0 0-1.27-.2 4.55 4.55 0 0 1-5.25-.85l-2.6-2.6A4.52 4.52 0 0 1 2.05 6l.35-.43 4.33 4.33c.3.3.8.3 1.1 0l1.91-1.9a.74.74 0 0 0 .03-1.1L5.41 2.56l.38-.35a4.54 4.54 0 0 1 6.31.11l2.61 2.61a4.54 4.54 0 0 1 .83 5.27c-.22.42-.14.94.2 1.27l2.91 2.92-.7.7L15 12.2a2.1 2.1 0 0 1-.38-2.44 3.52 3.52 0 0 0-.62-4.1L11.4 3a3.52 3.52 0 0 0-4.52-.4l3.57 3.6c.35.32.55.77.55 1.25s-.2.93-.55 1.25l-1.92 1.92c-.69.69-1.8.69-2.5 0L2.5 7.1A3.53 3.53 0 0 0 3 11.4L5.64 14a3.54 3.54 0 0 0 4.1.66c.8-.4 1.78-.25 2.42.4L15.08 18z"/><path id="fl3xi" d="M28.98 29.69l-2.63-2.63.7-.7 2.64 2.62z"/><path id="fl3xj" d="M30.7 31.43l-.85-.85.7-.7.86.84z"/><path id="fl3xk" d="M16.17 16.88l-3.69-3.7.7-.7 3.7 3.7z"/></defs><g><g transform="translate(-1 -1)"><g><use fill="#ffcb05" xlink:href="#fl3xa"/></g><g><use fill="#ffcb05" xlink:href="#fl3xb"/></g><g><use fill="#ffcb05" xlink:href="#fl3xc"/></g><g><use fill="#ffcb05" xlink:href="#fl3xd"/></g><g><use fill="#ffcb05" xlink:href="#fl3xe"/></g><g><use fill="#ffcb05" xlink:href="#fl3xf"/></g><g><use fill="#ffcb05" xlink:href="#fl3xg"/></g><g><use fill="#ffcb05" xlink:href="#fl3xh"/></g><g><use fill="#ffcb05" xlink:href="#fl3xi"/></g><g><use fill="#ffcb05" xlink:href="#fl3xj"/></g><g><use fill="#ffcb05" xlink:href="#fl3xk"/></g></g></g></svg>
