<svg xmlns="http://www.w3.org/2000/svg" xmlns:xlink="http://www.w3.org/1999/xlink" width="135" height="110.22" viewBox="0 0 135 110.22"><defs><path id="nn8sa" d="M40.58 105.75H19.33v-5h18.75v-20.5H2.5a2.5 2.5 0 0 1-2.5-2.5V2.5A2.5 2.5 0 0 1 2.5 0h130a2.5 2.5 0 0 1 2.5 2.5V78a2.5 2.5 0 0 1-2.5 2.5h-11v-5h8.5V5H5v70.25h35.58a2.5 2.5 0 0 1 2.5 2.5v25.5a2.5 2.5 0 0 1-2.5 2.5z"/><path id="nn8sb" d="M77.08 108.75H55a2.5 2.5 0 0 1-2.5-2.5v-73a2.5 2.5 0 0 1 2.5-2.5h54a2.5 2.5 0 0 1 2.5 2.5v15.83h-5V35.75h-49v68h19.58z"/><path id="nn8sc" d="M111.25 96.17H84.72V63.11h26.56zm-12.92 11.45a3.6 3.6 0 1 1 .03 0zm9.18-52.18a1.77 1.77 0 0 1 0 3.54H89.33a1.77 1.77 0 0 1 0-3.54zm1.35-3.19h-22.3A6.58 6.58 0 0 0 80 58.81v44.85a6.58 6.58 0 0 0 6.56 6.56h22.3a6.59 6.59 0 0 0 6.56-6.56V58.81a6.58 6.58 0 0 0-6.56-6.56z"/></defs><g><g><g><use fill="#fff" xlink:href="#nn8sa"/></g><g><use fill="#fff" xlink:href="#nn8sb"/></g><g><use fill="#fff" xlink:href="#nn8sc"/></g></g></g></svg>
