<svg xmlns="http://www.w3.org/2000/svg" xmlns:xlink="http://www.w3.org/1999/xlink" width="42.18" height="35.14" viewBox="0 0 42.18 35.14"><defs><path id="lp7fa" d="M39.37 29.08H2.81A2.81 2.81 0 0 1 0 26.27V2.81A2.81 2.81 0 0 1 2.81 0h.94v1h-.94c-1 0-1.8.81-1.81 1.81v23.46c0 1 .81 1.81 1.81 1.81h36.56c1 0 1.81-.81 1.81-1.81V2.81c0-1-.81-1.8-1.81-1.81h-.71V0h.71a2.81 2.81 0 0 1 2.81 2.81v23.46a2.81 2.81 0 0 1-2.81 2.81z"/><path id="lp7fb" d="M.5 24.34v-1h41.18v1z"/><path id="lp7fc" d="M17.89 29.08l-3.6 4.37a.42.42 0 0 0 0 .44c.08.16.24.26.42.25h12.64c.17 0 .33-.1.4-.25.1-.14.1-.33 0-.47l-3.55-4.34zm9.46 6.06H14.7a1.45 1.45 0 0 1-1.2-2.29l3.9-4.77h7.23l3.89 4.73c.32.45.37 1.05.12 1.55-.26.48-.76.78-1.3.78z"/><path id="lp7fd" d="M35.95 20.31h-1V5.37H6.77V20.4h-1V4.37h30.18v15.94z"/><path id="lp7fe" d="M8.27 7.75v-1h1.11v1z"/><path id="lp7ff" d="M10.46 7.75v-1h1.11v1z"/><path id="lp7fg" d="M12.65 7.75v-1h1.11v1z"/><path id="lp7fh" d="M6.27 9.68v-1h29.18v1z"/><path id="lp7fi" d="M28.26 16.47L27.2 18.7c.24.45.43.93.56 1.43l-1 .26a6.63 6.63 0 0 0-.55-1.39l-.13-.22 1-2.13a8.5 8.5 0 0 0-.74-.73l-2.12 1-.22-.17a6.06 6.06 0 0 0-1.44-.59l-.26-.07-.78-2.22h-1l-.79 2.22-.26.07c-.5.13-.98.33-1.43.59l-.23.14-2.12-1c-.26.23-.5.47-.73.73l1 2.13-.13.22c-.25.45-.45.93-.58 1.43l-1-.26c.13-.5.32-.98.56-1.43l-1.06-2.23.2-.25c.4-.48.83-.92 1.31-1.32l.25-.2 2.23 1.06c.38-.2.78-.37 1.19-.49l.83-2.33H22.25l.82 2.33a6 6 0 0 1 1.19.49l2.24-1.07.25.2c.48.4.92.84 1.32 1.32z"/><path id="lp7fj" d="M24.39 20.33l-.91.43a2.73 2.73 0 0 0-5 .12l-.92-.4A3.73 3.73 0 0 1 21 18.2c1.44 0 2.76.83 3.39 2.13z"/><path id="lp7fk" d="M3.54.99V0h35.55v.99z"/></defs><g><g><g><use fill="#fff" xlink:href="#lp7fa"/></g><g><use fill="#fff" xlink:href="#lp7fb"/></g><g><use fill="#fff" xlink:href="#lp7fc"/></g><g><use fill="#fff" xlink:href="#lp7fd"/></g><g><use fill="#fff" xlink:href="#lp7fe"/></g><g><use fill="#fff" xlink:href="#lp7ff"/></g><g><use fill="#fff" xlink:href="#lp7fg"/></g><g><use fill="#fff" xlink:href="#lp7fh"/></g><g><use fill="#fff" xlink:href="#lp7fi"/></g><g><use fill="#fff" xlink:href="#lp7fj"/></g><g><use fill="#fff" xlink:href="#lp7fk"/></g></g></g></svg>