<svg xmlns="http://www.w3.org/2000/svg" xmlns:xlink="http://www.w3.org/1999/xlink" width="35.02" height="32.33" viewBox="0 0 35.02 32.33"><defs><path id="qzg7a" d="M12.16 22.78H33L12.16 7.68zm22.37 1H11.66a.5.5 0 0 1-.5-.5V6.7c0-.18.1-.36.27-.45.16-.1.37-.1.53 0l22.86 16.63a.5.5 0 0 1-.29.9z"/><path id="qzg7b" d="M15.77 19.21h5.9L15.73 15zm9 1h-10v-7.12z"/><path id="qzg7c" d="M13.34 23.29V21.9h1v1.39z"/><path id="qzg7d" d="M15.51 23.29V21.9h1v1.39z"/><path id="qzg7e" d="M17.69 23.29V21.9h1v1.39z"/><path id="qzg7f" d="M19.86 23.29V21.9h1v1.39z"/><path id="qzg7g" d="M22.04 23.29V21.9h1v1.39z"/><path id="qzg7h" d="M24.21 23.29V21.9h1v1.39z"/><path id="qzg7i" d="M26.39 23.29V21.9h1v1.39z"/><path id="qzg7j" d="M28.56 23.29V21.9h1v1.39z"/><path id="qzg7k" d="M1 1l.14 15.33v10.55h2.83L3.84 1zM.67 27.9a.5.5 0 0 1-.35-.14.49.49 0 0 1-.15-.36v-11L0 .53C0 .4.05.27.14.17.24.07.36.01.5 0h3.84c.13.02.25.07.35.14.1.1.15.23.15.36L5 27.38a.5.5 0 0 1-.5.5H.66z"/><path id="qzg7l" d="M3.9 8.19l-.06-5.94 3.11-.01.06 5.93-1 .01-.05-4.94-1.11.01.05 4.93-1 .01z"/><path id="qzg7m" d="M.62 17.32v-1l3.84-.02v1z"/><path id="qzg7n" d="M2.04 16.8L1.92.51h1l.12 16.29z"/><path id="qzg7o" d="M1.55 27.9l1.06 1.86 1-1.88zm1.07 3.38a.49.49 0 0 1-.43-.28L.26 27.65a.5.5 0 0 1 .43-.75h3.8c.18 0 .34.1.44.24a.5.5 0 0 1 0 .5L3.06 31a.51.51 0 0 1-.44.26z"/><path id="qzg7p" d="M2.62 32.33a.5.5 0 0 1-.5-.5v-1a.5.5 0 0 1 1 0v1a.5.5 0 0 1-.5.5z"/></defs><g><g><g><use fill="#fff" xlink:href="#qzg7a"/></g><g><use fill="#fff" xlink:href="#qzg7b"/></g><g><use fill="#fff" xlink:href="#qzg7c"/></g><g><use fill="#fff" xlink:href="#qzg7d"/></g><g><use fill="#fff" xlink:href="#qzg7e"/></g><g><use fill="#fff" xlink:href="#qzg7f"/></g><g><use fill="#fff" xlink:href="#qzg7g"/></g><g><use fill="#fff" xlink:href="#qzg7h"/></g><g><use fill="#fff" xlink:href="#qzg7i"/></g><g><use fill="#fff" xlink:href="#qzg7j"/></g><g><use fill="#fff" xlink:href="#qzg7k"/></g><g><use fill="#fff" xlink:href="#qzg7l"/></g><g><use fill="#fff" xlink:href="#qzg7m"/></g><g><use fill="#fff" xlink:href="#qzg7n"/></g><g><use fill="#fff" xlink:href="#qzg7o"/></g><g><use fill="#fff" xlink:href="#qzg7p"/></g></g></g></svg>