<?xml version="1.0" encoding="UTF-8" standalone="no"?>
<svg width="286px" height="89px" viewBox="0 0 286 89" version="1.1" xmlns="http://www.w3.org/2000/svg" xmlns:xlink="http://www.w3.org/1999/xlink">
    <!-- Generator: Sketch 49.1 (51147) - http://www.bohemiancoding.com/sketch -->
    <title>CNX_logo white</title>
    <desc>Created with Sketch.</desc>
    <defs>
        <polygon id="path-1" points="0.06 0.077 285.916 0.077 285.916 88.94 0.06 88.94"></polygon>
    </defs>
    <g id="CNX_logo-white" stroke="none" stroke-width="1" fill="none" fill-rule="evenodd">
        <g>
            <mask id="mask-2" fill="white">
                <use xlink:href="#path-1"></use>
            </mask>
            <g id="Clip-2"></g>
            <path d="M232.88,42.061 L265.887,0.819 L238.171,0.819 L219.238,26.653 L200.306,0.819 L172.595,0.819 L205.591,42.061 L232.88,42.061 Z M205.601,47.289 L172.595,89 L200.306,89 L219.243,63.171 L238.181,89 L265.887,89 L232.886,47.289 L205.601,47.289 Z M45.926,22.24 L73.002,22.24 L72.992,0.077 L44.268,0.077 C19.815,0.082 0.01,19.893 0,44.345 C0.01,68.797 19.815,88.598 44.268,88.607 L72.992,88.607 L73.002,66.483 L45.926,66.483 C33.71,66.459 23.826,56.57 23.802,44.364 C23.826,32.152 33.71,22.264 45.926,22.24 Z M128.259,0.349 C128.191,0.349 128.113,0.344 128.045,0.344 L86.212,0.344 L86.212,89 L109.874,89 L109.874,22.371 L128.026,22.371 C128.103,22.371 128.181,22.376 128.259,22.381 C138.433,22.526 146.629,31.527 146.648,42.623 L146.648,89 L170.306,89 L170.306,42.623 C170.296,19.345 151.508,0.484 128.259,0.349 Z" id="Fill-1" fill="#FFFFFF" mask="url(#mask-2)"></path>
        </g>
    </g>
</svg>