<svg xmlns="http://www.w3.org/2000/svg" width="252" height="128" viewBox="0 0 252 128"><g><g><g><path fill="#b3b3b3" d="M133.89 35.126a23.29 23.29 0 0 0-42.28-11.13 20.79 20.79 0 1 1 21.7 34.36 26.85 26.85 0 0 0 19.93-15.16c.65-2.637.87-5.362.65-8.07z"/></g><g><path fill="#88ae3b" d="M135.887 27.57a30 30 0 0 0-14.13-22.74C108.489.349 93.927 6.119 87.33 18.47c-6.598 12.352-3.296 27.664 7.807 36.199a23.3 23.3 0 1 1 38.75-19.54c.22 2.707 0 5.433-.65 8.07v-.1c.09-.19.17-.4.26-.6a27.22 27.22 0 0 0 1.5-4.28 30 30 0 0 0 .89-10.65z"/></g><g><path fill="#0e4f82" d="M112.592 60.605a28.64 28.64 0 1 1 9.16-55.71l.25.11c-.36-.2-.72-.44-1.08-.64a30.06 30.06 0 0 0-9.54-3.52 37 37 0 1 0 29.12 37.59c-3.014 12.982-14.582 22.171-27.91 22.17z"/></g><g><path fill="#88ae3b" d="M65.404 101.1c.39-2.63.88-3.84 2.14-5.27a9.19 9.19 0 0 1 6.59-3 8.92 8.92 0 0 1 9 8.29zm16.79 6.82a8.74 8.74 0 0 1-7.73 4.67c-4.39 0-7.96-2.97-9.06-7.52h22.66c.11-.99.17-2.08.17-2.63 0-7.79-6.26-14.27-13.77-14.27a14.27 14.27 0 0 0-14.22 14.6c0 7.9 6.31 14.48 13.94 14.48a13.86 13.86 0 0 0 13.17-9.33z"/></g><g><path fill="#88ae3b" d="M118.402 107.48a14 14 0 0 1-13.4 9.77c-8 0-14-6.25-14-14.48a14.12 14.12 0 0 1 14-14.38c6.31 0 12.07 4.23 13.44 9.88h-5.65c-2.08-3.73-4.22-5.22-7.73-5.22-5.16 0-9 4.17-9 9.72 0 5.55 4 9.82 8.89 9.82a8.92 8.92 0 0 0 7.84-5.11z"/></g><g><path fill="#88ae3b" d="M125.815 102.713c.054-5.313 4.35-9.606 9.665-9.66a9.695 9.695 0 0 1 8.981 5.968 9.686 9.686 0 0 1-2.096 10.574 9.699 9.699 0 0 1-10.58 2.095 9.69 9.69 0 0 1-5.97-8.977zm20.065-10.22a14.52 14.52 0 0 0-10.405-4.1 14.79 14.79 0 1 0 14.81 14.38 14.52 14.52 0 0 0-4.405-10.28z"/></g><g><path fill="#0e4f82" d="M155.88 79.94h3.45v36.6h-3.45z"/></g><g><path fill="#0e4f82" d="M166.63 103.15a10.68 10.68 0 1 1 21.34-.27c0 6.25-4.66 11.19-10.59 11.19-5.984-.05-10.795-4.937-10.75-10.92zm16.14-13.258a14.19 14.19 0 1 0-5.39 27.258c7.669-.169 13.853-6.331 14.05-14a14.19 14.19 0 0 0-8.66-13.258z"/></g><g><path fill="#0e4f82" d="M208.223 92.003a10.899 10.899 0 0 1 10.81 11.002c0 6.002-4.78 11.002-10.54 11.002a10.769 10.769 0 0 1-10.64-11.002c0-6.21 4.49-11.002 10.37-11.002zm14.23-2.509h-3.45v4.88a12.69 12.69 0 0 0-10.82-5.56c-7.695.264-13.776 6.617-13.702 14.317.073 7.7 6.273 13.935 13.972 14.053 4.72 0 8.94-2.38 10.54-6v3c0 5.76-4.17 9.88-10.05 9.88-4.46 0-7.36-1.98-10-6.81h-3.56a13.62 13.62 0 0 0 13.28 9.88 14.51 14.51 0 0 0 11.3-5.1c1.97-2.47 2.52-4.28 2.52-8.73z"/></g><g><path fill="#0e4f82" d="M236.86 115.66l-10.54-26.17h4l8.56 21.56 9.21-21.56H252L236.31 126h-3.84z"/></g><g><path fill="#0e4f82" d="M23.1 104.47v-1.66h5v-3.88a11.4 11.4 0 0 1-4.31-8.82 11.79 11.79 0 0 1 4.33-9v-1.1h-9.35v22.17c0 5-1.27 6.91-4.67 6.91s-4.77-2.08-4.77-6.91V79.94H0v22.17c0 5.7.93 8.5 3.68 11.25a14.48 14.48 0 0 0 10.42 3.89 14 14 0 0 0 10.37-4c.19-.2.36-.41.54-.61a13.21 13.21 0 0 1-1.91-7.07z"/></g><g><path fill="#0e4f82" d="M41.27 90.595c-.33-2.53-1.27-3.59-3.34-3.59a3 3 0 0 0-3.19 2.85c0 1.26.72 2.25 2.36 3.18.238.163.497.294.77.39l1.48.71 1.48.66 1.54.66c6 2.8 8.51 5.81 8.51 10.37 0 7.19-4.72 11.41-12.79 11.41s-13.33-4.5-13.33-11.63v-1.15h9.38c0 3 1.48 4.94 3.84 4.94a3.52 3.52 0 0 0 3.62-3.39c0-1.7-1.2-3-3.89-4.06-5.71-2.3-6.71-2.8-8.62-4.33a9.8 9.8 0 0 1-3.67-7.52c0-6.09 5.58-10.92 12.78-10.92a12.83 12.83 0 0 1 9.88 4.23c1.64 1.92 2.25 3.73 2.47 7.19z"/></g></g></g></svg>