<svg xmlns="http://www.w3.org/2000/svg" viewBox="0 0 295.27 32.89"><defs><style>.cls-1{fill:#c7c8ca;}.cls-2{fill:#a7a9ac;}.cls-3{fill:#d1d3d4;}.cls-4{fill:#fff;}</style></defs><title>symmetri_tech_rev_gray_1</title><g id="Layer_2" data-name="Layer 2"><g id="Layer_1-2" data-name="Layer 1"><path class="cls-1" d="M46.38,25a10.31,10.31,0,0,1-1.74-.14,11.61,11.61,0,0,1-1.38-.34,7.8,7.8,0,0,1-1-.41,7.15,7.15,0,0,1-.65-.38.93.93,0,0,1-.45-.74.84.84,0,0,1,.28-.61.87.87,0,0,1,.61-.29.76.76,0,0,1,.45.15l.54.33a7.38,7.38,0,0,0,1.32.65,5.87,5.87,0,0,0,2.08.3A3.9,3.9,0,0,0,48.74,23a1.94,1.94,0,0,0,.79-1.68,4,4,0,0,0-.08-.78,1.59,1.59,0,0,0-.33-.68,2.3,2.3,0,0,0-.85-.58,7.23,7.23,0,0,0-1.6-.47l-1.38-.26a8.65,8.65,0,0,1-1.44-.4,4,4,0,0,1-1.2-.66A3.09,3.09,0,0,1,41.53,15a3.35,3.35,0,0,1,1.32-2.79,5.46,5.46,0,0,1,3.46-1,8,8,0,0,1,3,.53,5.47,5.47,0,0,1,.88.45c.24.14.42.27.56.37a1.29,1.29,0,0,1,.33.33.7.7,0,0,1,.14.42.82.82,0,0,1-.21.57.7.7,0,0,1-.52.24A1,1,0,0,1,50,14l-.43-.26A9.87,9.87,0,0,0,48.2,13a5.19,5.19,0,0,0-2-.33,3.24,3.24,0,0,0-2.24.63,2.13,2.13,0,0,0-.67,1.59,1.83,1.83,0,0,0,.5,1.22,3.39,3.39,0,0,0,2,.85l1.74.34a5.58,5.58,0,0,1,2.78,1.26,3.32,3.32,0,0,1,1,2.54A3.57,3.57,0,0,1,50,24,5.56,5.56,0,0,1,46.38,25Z"/><path class="cls-1" d="M57.8,30.05a.85.85,0,0,1-.58-.2.7.7,0,0,1-.26-.56,2,2,0,0,1,.19-.68l1.92-4.29L54.21,12.8c0-.09-.07-.19-.1-.31a1,1,0,0,1-.06-.34.64.64,0,0,1,.35-.59,1.35,1.35,0,0,1,.7-.18c.26,0,.48.21.65.63L60,22.19,64.41,12c.15-.4.37-.6.65-.6a1.26,1.26,0,0,1,.66.18.6.6,0,0,1,.33.54.92.92,0,0,1,0,.29c0,.11-.07.22-.1.33L58.56,29.43C58.39,29.84,58.14,30.05,57.8,30.05Z"/><path class="cls-1" d="M87.31,24.77c-.74,0-.89-.39-.89-.72V16.29a4.61,4.61,0,0,0-.61-2.62,2.27,2.27,0,0,0-2-.86,3.47,3.47,0,0,0-1.87.48,4,4,0,0,0-1.3,1.27,6.19,6.19,0,0,0-.77,1.78,7.65,7.65,0,0,0-.25,1.94v5.77c0,.33-.14.72-.79.72s-.89-.39-.89-.72V16.29a4.61,4.61,0,0,0-.62-2.62,2.32,2.32,0,0,0-2-.86,3.4,3.4,0,0,0-1.83.49,4,4,0,0,0-1.26,1.29,6.12,6.12,0,0,0-.73,1.78,8.34,8.34,0,0,0-.24,2v5.59a.83.83,0,0,1-.23.67.94.94,0,0,1-.61.18.92.92,0,0,1-.61-.18.8.8,0,0,1-.23-.67V12.2a.74.74,0,0,1,.23-.63.91.91,0,0,1,.56-.16,1,1,0,0,1,.59.16.69.69,0,0,1,.25.63v1.88l.24-.5a5.06,5.06,0,0,1,.81-1.11,4.62,4.62,0,0,1,3.37-1.32,3.94,3.94,0,0,1,2.46.8,3.77,3.77,0,0,1,1.31,2.23c.09-.19.21-.4.35-.64a4.9,4.9,0,0,1,.9-1.1,5.1,5.1,0,0,1,1.42-.91,5,5,0,0,1,2-.38,4.32,4.32,0,0,1,1.59.28,3.32,3.32,0,0,1,1.28.84,4.12,4.12,0,0,1,.85,1.43,5.84,5.84,0,0,1,.31,2v8.33C88.1,24.38,88,24.77,87.31,24.77Z"/><path class="cls-1" d="M110.82,24.77c-.74,0-.89-.39-.89-.72V16.29a4.69,4.69,0,0,0-.61-2.62,2.28,2.28,0,0,0-2-.86,3.53,3.53,0,0,0-1.88.48,4.26,4.26,0,0,0-1.3,1.27,5.91,5.91,0,0,0-.76,1.78,7.67,7.67,0,0,0-.26,1.94v5.77c0,.33-.13.72-.79.72s-.89-.39-.89-.72V16.29a4.61,4.61,0,0,0-.62-2.62,2.3,2.3,0,0,0-2-.86A3.41,3.41,0,0,0,97,13.3a4.19,4.19,0,0,0-1.26,1.29A6.1,6.1,0,0,0,95,16.37a7.92,7.92,0,0,0-.25,2v5.59a.82.82,0,0,1-.22.67,1,1,0,0,1-.62.18.94.94,0,0,1-.61-.18.82.82,0,0,1-.23-.67V12.2a.72.72,0,0,1,.24-.63.88.88,0,0,1,.55-.16,1,1,0,0,1,.6.16.72.72,0,0,1,.24.63v1.88l.25-.5a4.48,4.48,0,0,1,.81-1.11,4.72,4.72,0,0,1,1.34-.92,4.59,4.59,0,0,1,2-.4,4,4,0,0,1,2.46.8,3.81,3.81,0,0,1,1.3,2.23c.1-.19.21-.4.35-.64a5.18,5.18,0,0,1,.9-1.1,5.25,5.25,0,0,1,1.42-.91,5,5,0,0,1,2-.38,4.41,4.41,0,0,1,1.6.28,3.36,3.36,0,0,1,1.27.84,4,4,0,0,1,.85,1.43,5.82,5.82,0,0,1,.32,2v8.33C111.61,24.38,111.47,24.77,110.82,24.77Z"/><path class="cls-1" d="M122,25a6.62,6.62,0,0,1-2.69-.51,5.14,5.14,0,0,1-1.94-1.43,6.32,6.32,0,0,1-1.18-2.19,9.24,9.24,0,0,1-.4-2.82,8.56,8.56,0,0,1,.43-2.77,6.28,6.28,0,0,1,1.23-2.2,5.8,5.8,0,0,1,1.94-1.43,6.09,6.09,0,0,1,2.53-.52,5.94,5.94,0,0,1,2.52.51A5.4,5.4,0,0,1,126.24,13a6,6,0,0,1,1.11,2.05,8.26,8.26,0,0,1,.38,2.52.67.67,0,0,1-.23.56,1,1,0,0,1-.56.16h-9.43a6.11,6.11,0,0,0,1.19,3.79A4,4,0,0,0,122,23.49a4.88,4.88,0,0,0,1.43-.18,3.88,3.88,0,0,0,1-.48,2.91,2.91,0,0,0,.68-.62,5.92,5.92,0,0,0,.48-.64,2.72,2.72,0,0,1,.27-.32.5.5,0,0,1,.38-.13,1.09,1.09,0,0,1,.56.16.58.58,0,0,1,.3.52,1.3,1.3,0,0,1-.27.73,6.78,6.78,0,0,1-.61.78,4.36,4.36,0,0,1-1,.81,6,6,0,0,1-1.39.64A6.26,6.26,0,0,1,122,25ZM126,16.93a6.66,6.66,0,0,0-.36-1.57,4.55,4.55,0,0,0-.8-1.39,3.88,3.88,0,0,0-1.26-1,4,4,0,0,0-1.77-.36,4.33,4.33,0,0,0-1.79.34,3.81,3.81,0,0,0-1.3.95,4.53,4.53,0,0,0-.82,1.4,6,6,0,0,0-.37,1.58Z"/><path class="cls-1" d="M135.65,25a3.3,3.3,0,0,1-2.51-.85,3.35,3.35,0,0,1-.81-2.42V13.09h-1.51a.54.54,0,0,1-.5-.23,1.1,1.1,0,0,1-.11-.51,1.13,1.13,0,0,1,.11-.53.52.52,0,0,1,.5-.23h1.51V8.77a2,2,0,0,1,.07-.65.63.63,0,0,1,.29-.35,1.56,1.56,0,0,1,.42-.19,1.58,1.58,0,0,1,.45-.06c.17,0,.45.07.45.54v3.53h2.81a.51.51,0,0,1,.5.23,1,1,0,0,1,.12.53,1,1,0,0,1-.12.51.53.53,0,0,1-.5.23H134v8.15a2.79,2.79,0,0,0,.42,1.79,1.9,1.9,0,0,0,1.45.46,2.72,2.72,0,0,0,.71-.08,2.78,2.78,0,0,0,.49-.21l.26-.12a.66.66,0,0,1,.3-.07.55.55,0,0,1,.45.27,1,1,0,0,1,.19.59c0,.39-.27.68-.79.88A5.5,5.5,0,0,1,135.65,25Z"/><path class="cls-1" d="M142.47,24.77a.92.92,0,0,1-.59-.18.83.83,0,0,1-.22-.67V12.2a.77.77,0,0,1,.21-.63.86.86,0,0,1,.55-.16.93.93,0,0,1,.58.16.72.72,0,0,1,.24.63v2a5.67,5.67,0,0,1,.75-1.11,5.57,5.57,0,0,1,1.16-1,4.58,4.58,0,0,1,1.2-.55,4.31,4.31,0,0,1,1.13-.17,1.25,1.25,0,0,1,.83.23.9.9,0,0,1,.26.71,1,1,0,0,1-.23.73,1,1,0,0,1-.68.22,4,4,0,0,0-3.17,1.33,6,6,0,0,0-1.15,4v5.41a.76.76,0,0,1-.25.67A1,1,0,0,1,142.47,24.77Z"/><path class="cls-1" d="M152.66,24.77a.9.9,0,0,1-.6-.18.85.85,0,0,1-.21-.67V12.25a.88.88,0,0,1,.21-.67,1,1,0,0,1,.6-.17,1,1,0,0,1,.62.17.85.85,0,0,1,.23.67V23.92a.83.83,0,0,1-.23.67A1,1,0,0,1,152.66,24.77Zm0-15.87a1.12,1.12,0,0,1-1.14-1.2,1.19,1.19,0,0,1,.34-.92,1.23,1.23,0,0,1,1.61,0,1.19,1.19,0,0,1,.34.92,1.12,1.12,0,0,1-1.15,1.2Z"/><polygon class="cls-2" points="28.48 14.83 28.48 8.22 14.24 0 8.6 3.26 28.48 14.83"/><polygon class="cls-2" points="0 18.03 0 24.66 14.24 32.88 19.9 29.62 0 18.03"/><polygon class="cls-3" points="3.47 6.22 0 8.22 0 12.09 25.03 26.66 28.48 24.66 28.48 20.77 3.47 6.22"/><path class="cls-4" d="M164.24,25a3.34,3.34,0,0,1-2.52-.86,3.34,3.34,0,0,1-.82-2.43V13.19h-1.45a.59.59,0,0,1-.54-.25,1.07,1.07,0,0,1-.12-.53,1.09,1.09,0,0,1,.12-.55.58.58,0,0,1,.54-.26h1.45V8.85a2.15,2.15,0,0,1,.07-.66.67.67,0,0,1,.31-.37,1.66,1.66,0,0,1,.43-.2,2.06,2.06,0,0,1,.45,0c.15,0,.5,0,.5.57V11.6h2.75a.56.56,0,0,1,.53.25,1.16,1.16,0,0,1,.12.56,1.07,1.07,0,0,1-.12.53.56.56,0,0,1-.53.25h-2.75v8a2.74,2.74,0,0,0,.41,1.75,1.85,1.85,0,0,0,1.4.44,2.51,2.51,0,0,0,.69-.08,2.39,2.39,0,0,0,.49-.2l.25-.12a.79.79,0,0,1,.32-.08.6.6,0,0,1,.49.29,1,1,0,0,1,.19.62c0,.4-.27.71-.82.91A5.42,5.42,0,0,1,164.24,25Z"/><path class="cls-4" d="M175.18,25a6.6,6.6,0,0,1-2.68-.51,5.17,5.17,0,0,1-1.94-1.43,6.3,6.3,0,0,1-1.19-2.2,9.44,9.44,0,0,1-.4-2.81,8.83,8.83,0,0,1,.43-2.77,6.24,6.24,0,0,1,1.23-2.19,5.89,5.89,0,0,1,1.94-1.44,6.13,6.13,0,0,1,2.54-.52,5.91,5.91,0,0,1,2.52.51,5.31,5.31,0,0,1,1.84,1.38,6,6,0,0,1,1.12,2.06,8.26,8.26,0,0,1,.37,2.52.69.69,0,0,1-.24.58,1,1,0,0,1-.59.17h-9.32a6.06,6.06,0,0,0,1.17,3.7,4,4,0,0,0,3.2,1.34,4.81,4.81,0,0,0,1.42-.18,3.87,3.87,0,0,0,1-.46,3.25,3.25,0,0,0,.66-.61,7.09,7.09,0,0,0,.48-.64,2.72,2.72,0,0,1,.27-.32.54.54,0,0,1,.41-.15,1.17,1.17,0,0,1,.58.17.63.63,0,0,1,.32.56,1.27,1.27,0,0,1-.28.74,6.61,6.61,0,0,1-.6.79,4.68,4.68,0,0,1-1,.81,6,6,0,0,1-1.39.64A6.28,6.28,0,0,1,175.18,25Zm4-8.13a6.11,6.11,0,0,0-.35-1.49,4.29,4.29,0,0,0-.78-1.37,3.74,3.74,0,0,0-1.24-.94,3.89,3.89,0,0,0-1.74-.35,4.27,4.27,0,0,0-1.77.34A3.73,3.73,0,0,0,172,14a4.56,4.56,0,0,0-.81,1.37,5.93,5.93,0,0,0-.35,1.51Z"/><path class="cls-4" d="M190.13,25a6.55,6.55,0,0,1-2.69-.51,5,5,0,0,1-1.9-1.43,6.28,6.28,0,0,1-1.1-2.21,10.41,10.41,0,0,1-.36-2.82,9.13,9.13,0,0,1,.4-2.79,6.12,6.12,0,0,1,1.18-2.18,5.58,5.58,0,0,1,1.9-1.42,6.73,6.73,0,0,1,4.49-.23,5.88,5.88,0,0,1,1.4.67,4.7,4.7,0,0,1,1,.9,5.5,5.5,0,0,1,.59.9l.14.34a1,1,0,0,1,.08.41.77.77,0,0,1-.31.64,1,1,0,0,1-.62.24.71.71,0,0,1-.39-.1,1.11,1.11,0,0,1-.38-.49l-.31-.54a3.07,3.07,0,0,0-.6-.7,3.93,3.93,0,0,0-1-.61,3.75,3.75,0,0,0-1.48-.25A3.66,3.66,0,0,0,187,14.23,6.29,6.29,0,0,0,186,18,6.63,6.63,0,0,0,187,22a3.63,3.63,0,0,0,3.13,1.42,3.83,3.83,0,0,0,1.39-.22,3.68,3.68,0,0,0,.95-.51,2.56,2.56,0,0,0,.59-.6l.38-.58a2.51,2.51,0,0,1,.39-.56.64.64,0,0,1,.44-.17,1,1,0,0,1,.63.24.73.73,0,0,1,.3.59,1.39,1.39,0,0,1-.19.65c-.11.18-.27.42-.49.73a5.12,5.12,0,0,1-.93.94,5.54,5.54,0,0,1-1.45.81A5.39,5.39,0,0,1,190.13,25Z"/><path class="cls-4" d="M209.12,24.79c-.81,0-.93-.47-.93-.76V16.32a4.1,4.1,0,0,0-.67-2.55,2.84,2.84,0,0,0-2.38-.86,3.81,3.81,0,0,0-2,.49,4.21,4.21,0,0,0-1.36,1.26,5.5,5.5,0,0,0-.78,1.76,7.63,7.63,0,0,0-.25,1.93v5.56a.85.85,0,0,1-.24.69,1,1,0,0,1-.64.19.93.93,0,0,1-.63-.19.82.82,0,0,1-.25-.69V7.36a.76.76,0,0,1,.28-.67,1.08,1.08,0,0,1,.6-.16,1.14,1.14,0,0,1,.63.16.76.76,0,0,1,.28.67v6.49l.2-.35a4.65,4.65,0,0,1,.92-1.07,5.08,5.08,0,0,1,1.46-.89,5.43,5.43,0,0,1,2.07-.37,4.74,4.74,0,0,1,3.26,1.12A4.44,4.44,0,0,1,210,15.76V24C210,24.52,209.66,24.79,209.12,24.79Z"/><path class="cls-4" d="M224.91,24.79c-.81,0-.93-.47-.93-.76V16.32a4.17,4.17,0,0,0-.67-2.55,2.85,2.85,0,0,0-2.39-.86,3.8,3.8,0,0,0-2,.49,4.21,4.21,0,0,0-1.36,1.26,5.5,5.5,0,0,0-.78,1.76,7.63,7.63,0,0,0-.25,1.93v5.56a.85.85,0,0,1-.24.69,1.17,1.17,0,0,1-1.28,0,.85.85,0,0,1-.24-.69V12.26a.79.79,0,0,1,.25-.67,1,1,0,0,1,.58-.16,1,1,0,0,1,.61.16.76.76,0,0,1,.27.67V14c.06-.12.13-.24.21-.38a4.83,4.83,0,0,1,1-1.11,6.11,6.11,0,0,1,1.48-.92,5.11,5.11,0,0,1,2.08-.4,4.74,4.74,0,0,1,3.26,1.12,4.44,4.44,0,0,1,1.25,3.47V24C225.74,24.52,225.45,24.79,224.91,24.79Z"/><path class="cls-4" d="M236,25a6.82,6.82,0,0,1-2.56-.47,5.47,5.47,0,0,1-2-1.37A6.28,6.28,0,0,1,230.22,21a8.86,8.86,0,0,1-.45-2.92,8.7,8.7,0,0,1,.45-2.9A6.33,6.33,0,0,1,231.49,13a5.38,5.38,0,0,1,2-1.37,7.21,7.21,0,0,1,5.12,0,5.3,5.3,0,0,1,2,1.37,6.33,6.33,0,0,1,1.27,2.18,8.74,8.74,0,0,1,.45,2.9,8.86,8.86,0,0,1-.45,2.92,6.28,6.28,0,0,1-1.27,2.19,5.37,5.37,0,0,1-2,1.37A6.82,6.82,0,0,1,236,25Zm0-12.26a4,4,0,0,0-3.24,1.38,6.13,6.13,0,0,0-1.14,3.93A6.13,6.13,0,0,0,232.79,22a4.54,4.54,0,0,0,6.5,0,6.08,6.08,0,0,0,1.14-3.95,6.07,6.07,0,0,0-1.14-3.93A4,4,0,0,0,236,12.78Z"/><path class="cls-4" d="M247.2,24.79a1,1,0,0,1-.63-.19.88.88,0,0,1-.23-.69V7.18a.92.92,0,0,1,.22-.7.9.9,0,0,1,.64-.21,1,1,0,0,1,.64.2.89.89,0,0,1,.24.71V23.91a.82.82,0,0,1-.25.69A.93.93,0,0,1,247.2,24.79Z"/><path class="cls-4" d="M258.37,25a6.82,6.82,0,0,1-2.56-.47,5.38,5.38,0,0,1-2-1.37A6.28,6.28,0,0,1,252.56,21a8.86,8.86,0,0,1-.45-2.92,8.7,8.7,0,0,1,.45-2.9A6.33,6.33,0,0,1,253.83,13a5.38,5.38,0,0,1,2-1.37,7.21,7.21,0,0,1,5.12,0,5.37,5.37,0,0,1,2,1.37,6.33,6.33,0,0,1,1.27,2.18,8.74,8.74,0,0,1,.45,2.9A8.86,8.86,0,0,1,264.2,21a6.28,6.28,0,0,1-1.27,2.19,5.37,5.37,0,0,1-2,1.37A6.82,6.82,0,0,1,258.37,25Zm0-12.26a4,4,0,0,0-3.24,1.38A6.07,6.07,0,0,0,254,18.09,6.08,6.08,0,0,0,255.13,22a4,4,0,0,0,3.24,1.37A4,4,0,0,0,261.63,22a6.13,6.13,0,0,0,1.14-3.95,6.13,6.13,0,0,0-1.14-3.93A4,4,0,0,0,258.37,12.78Z"/><path class="cls-4" d="M273.93,30.27a9.06,9.06,0,0,1-2-.21,8.11,8.11,0,0,1-1.57-.49,5.31,5.31,0,0,1-1-.52.92.92,0,0,1-.42-.78,1.12,1.12,0,0,1,.24-.67.71.71,0,0,1,.59-.33,1.11,1.11,0,0,1,.57.18,6.61,6.61,0,0,0,.57.34,9.9,9.9,0,0,0,1.25.58,5,5,0,0,0,1.75.27,5.57,5.57,0,0,0,1.6-.23,3.57,3.57,0,0,0,1.32-.7,3.4,3.4,0,0,0,.9-1.27,5,5,0,0,0,.33-1.92V22.81a4.3,4.3,0,0,1-1.63,1.55,5.9,5.9,0,0,1-2.8.63,5.65,5.65,0,0,1-2.45-.52A5.3,5.3,0,0,1,269.41,23a6.16,6.16,0,0,1-1.12-2.18,9.69,9.69,0,0,1-.37-2.78,9.34,9.34,0,0,1,.39-2.78,6.15,6.15,0,0,1,1.13-2.19,5.17,5.17,0,0,1,1.84-1.42,5.77,5.77,0,0,1,2.47-.51,5.46,5.46,0,0,1,2.79.67,5.59,5.59,0,0,1,1.58,1.41v-.94a.89.89,0,0,1,.24-.71,1,1,0,0,1,.64-.2.9.9,0,0,1,.63.2.92.92,0,0,1,.23.71V24.64a5.29,5.29,0,0,1-1.63,4.22A6.31,6.31,0,0,1,273.93,30.27Zm-.11-17.44a3.93,3.93,0,0,0-1.76.38,3.39,3.39,0,0,0-1.25,1.07,5,5,0,0,0-.76,1.68,9.19,9.19,0,0,0-.25,2.18,8,8,0,0,0,.28,2.15,4.79,4.79,0,0,0,.8,1.65,3.53,3.53,0,0,0,1.31,1,4.21,4.21,0,0,0,1.79.37,4,4,0,0,0,1.81-.39,3.77,3.77,0,0,0,1.32-1.09,4.86,4.86,0,0,0,.81-1.68A7.74,7.74,0,0,0,278.2,18,5.7,5.7,0,0,0,277,14.19,4,4,0,0,0,273.82,12.83Z"/><path class="cls-4" d="M287,30a.94.94,0,0,1-.61-.21.74.74,0,0,1-.27-.59,2.19,2.19,0,0,1,.19-.69l1.88-4.21-4.8-11.47c0-.09-.07-.19-.1-.31a1.12,1.12,0,0,1-.06-.35.67.67,0,0,1,.37-.62,1.33,1.33,0,0,1,.71-.19c.29,0,.52.22.7.65l4.15,10,4.36-10c.16-.41.39-.62.69-.62a1.28,1.28,0,0,1,.69.19.63.63,0,0,1,.35.56,1,1,0,0,1-.06.31l-.1.32L287.82,29.4A.87.87,0,0,1,287,30Z"/></g></g></svg>