<?xml version="1.0" encoding="UTF-8" standalone="no"?>
<svg
   xmlns:dc="http://purl.org/dc/elements/1.1/"
   xmlns:cc="http://creativecommons.org/ns#"
   xmlns:rdf="http://www.w3.org/1999/02/22-rdf-syntax-ns#"
   xmlns:svg="http://www.w3.org/2000/svg"
   xmlns="http://www.w3.org/2000/svg"
   height="30.898321"
   width="277.45529"
   id="svg52"
   version="1.1"
   viewBox="0 0 277.4553 30.898322">
  <metadata
     id="metadata56">
    <rdf:RDF>
      <cc:Work
         rdf:about="">
        <dc:format>image/svg+xml</dc:format>
        <dc:type
           rdf:resource="http://purl.org/dc/dcmitype/StillImage" />
        <dc:title>symmetri_tech_rev_gray_1</dc:title>
      </cc:Work>
    </rdf:RDF>
  </metadata>
  <defs
     id="defs4">
    <style
       id="style2">.cls-1{fill:#c7c8ca;}.cls-2{fill:#a7a9ac;}.cls-3{fill:#d1d3d4;}.cls-4{fill:#fff;}</style>
  </defs>
  <title
     id="title6">symmetri_tech_rev_gray_1</title>
  <g
     transform="scale(0.93972999)"
     data-name="Layer 2"
     id="Layer_2">
    <g
       data-name="Layer 1"
       id="Layer_1-2">
      <path
         style="fill:#c7c8ca"
         id="path8"
         d="m 46.38,25 a 10.31,10.31 0 0 1 -1.74,-0.14 11.61,11.61 0 0 1 -1.38,-0.34 7.8,7.8 0 0 1 -1,-0.41 7.15,7.15 0 0 1 -0.65,-0.38 0.93,0.93 0 0 1 -0.45,-0.74 0.84,0.84 0 0 1 0.28,-0.61 0.87,0.87 0 0 1 0.61,-0.29 0.76,0.76 0 0 1 0.45,0.15 l 0.54,0.33 a 7.38,7.38 0 0 0 1.32,0.65 5.87,5.87 0 0 0 2.08,0.3 3.9,3.9 0 0 0 2.3,-0.52 1.94,1.94 0 0 0 0.79,-1.68 4,4 0 0 0 -0.08,-0.78 1.59,1.59 0 0 0 -0.33,-0.68 2.3,2.3 0 0 0 -0.85,-0.58 7.23,7.23 0 0 0 -1.6,-0.47 l -1.38,-0.26 a 8.65,8.65 0 0 1 -1.44,-0.4 4,4 0 0 1 -1.2,-0.66 3.09,3.09 0 0 1 -1.12,-2.49 3.35,3.35 0 0 1 1.32,-2.79 5.46,5.46 0 0 1 3.46,-1 8,8 0 0 1 3,0.53 5.47,5.47 0 0 1 0.88,0.45 c 0.24,0.14 0.42,0.27 0.56,0.37 a 1.29,1.29 0 0 1 0.33,0.33 0.7,0.7 0 0 1 0.14,0.42 0.82,0.82 0 0 1 -0.21,0.57 0.7,0.7 0 0 1 -0.52,0.24 A 1,1 0 0 1 50,14 L 49.57,13.74 A 9.87,9.87 0 0 0 48.2,13 a 5.19,5.19 0 0 0 -2,-0.33 3.24,3.24 0 0 0 -2.24,0.63 2.13,2.13 0 0 0 -0.67,1.59 1.83,1.83 0 0 0 0.5,1.22 3.39,3.39 0 0 0 2,0.85 l 1.74,0.34 a 5.58,5.58 0 0 1 2.78,1.26 3.32,3.32 0 0 1 1,2.54 A 3.57,3.57 0 0 1 50,24 5.56,5.56 0 0 1 46.38,25 Z"
         class="cls-1" />
      <path
         style="fill:#c7c8ca"
         id="path10"
         d="m 57.8,30.05 a 0.85,0.85 0 0 1 -0.58,-0.2 0.7,0.7 0 0 1 -0.26,-0.56 2,2 0 0 1 0.19,-0.68 L 59.07,24.32 54.21,12.8 c 0,-0.09 -0.07,-0.19 -0.1,-0.31 a 1,1 0 0 1 -0.06,-0.34 0.64,0.64 0 0 1 0.35,-0.59 1.35,1.35 0 0 1 0.7,-0.18 c 0.26,0 0.48,0.21 0.65,0.63 L 60,22.19 64.41,12 c 0.15,-0.4 0.37,-0.6 0.65,-0.6 a 1.26,1.26 0 0 1 0.66,0.18 0.6,0.6 0 0 1 0.33,0.54 0.92,0.92 0 0 1 0,0.29 c 0,0.11 -0.07,0.22 -0.1,0.33 l -7.39,16.69 c -0.17,0.41 -0.42,0.62 -0.76,0.62 z"
         class="cls-1" />
      <path
         style="fill:#c7c8ca"
         id="path12"
         d="m 87.31,24.77 c -0.74,0 -0.89,-0.39 -0.89,-0.72 v -7.76 a 4.61,4.61 0 0 0 -0.61,-2.62 2.27,2.27 0 0 0 -2,-0.86 3.47,3.47 0 0 0 -1.87,0.48 4,4 0 0 0 -1.3,1.27 6.19,6.19 0 0 0 -0.77,1.78 7.65,7.65 0 0 0 -0.25,1.94 v 5.77 c 0,0.33 -0.14,0.72 -0.79,0.72 -0.65,0 -0.89,-0.39 -0.89,-0.72 v -7.76 a 4.61,4.61 0 0 0 -0.62,-2.62 2.32,2.32 0 0 0 -2,-0.86 3.4,3.4 0 0 0 -1.83,0.49 4,4 0 0 0 -1.26,1.29 6.12,6.12 0 0 0 -0.73,1.78 8.34,8.34 0 0 0 -0.24,2 v 5.59 a 0.83,0.83 0 0 1 -0.23,0.67 0.94,0.94 0 0 1 -0.61,0.18 0.92,0.92 0 0 1 -0.61,-0.18 0.8,0.8 0 0 1 -0.23,-0.67 V 12.2 a 0.74,0.74 0 0 1 0.23,-0.63 0.91,0.91 0 0 1 0.56,-0.16 1,1 0 0 1 0.59,0.16 0.69,0.69 0 0 1 0.25,0.63 v 1.88 l 0.24,-0.5 a 5.06,5.06 0 0 1 0.81,-1.11 4.62,4.62 0 0 1 3.37,-1.32 3.94,3.94 0 0 1 2.46,0.8 3.77,3.77 0 0 1 1.31,2.23 c 0.09,-0.19 0.21,-0.4 0.35,-0.64 a 4.9,4.9 0 0 1 0.9,-1.1 5.1,5.1 0 0 1 1.42,-0.91 5,5 0 0 1 2,-0.38 4.32,4.32 0 0 1 1.59,0.28 3.32,3.32 0 0 1 1.28,0.84 4.12,4.12 0 0 1 0.85,1.43 5.84,5.84 0 0 1 0.31,2 v 8.33 c 0,0.35 -0.1,0.74 -0.79,0.74 z"
         class="cls-1" />
      <path
         style="fill:#c7c8ca"
         id="path14"
         d="m 110.82,24.77 c -0.74,0 -0.89,-0.39 -0.89,-0.72 v -7.76 a 4.69,4.69 0 0 0 -0.61,-2.62 2.28,2.28 0 0 0 -2,-0.86 3.53,3.53 0 0 0 -1.88,0.48 4.26,4.26 0 0 0 -1.3,1.27 5.91,5.91 0 0 0 -0.76,1.78 7.67,7.67 0 0 0 -0.26,1.94 v 5.77 c 0,0.33 -0.13,0.72 -0.79,0.72 -0.66,0 -0.89,-0.39 -0.89,-0.72 v -7.76 a 4.61,4.61 0 0 0 -0.62,-2.62 2.3,2.3 0 0 0 -2,-0.86 3.41,3.41 0 0 0 -1.82,0.49 4.19,4.19 0 0 0 -1.26,1.29 6.1,6.1 0 0 0 -0.74,1.78 7.92,7.92 0 0 0 -0.25,2 v 5.59 a 0.82,0.82 0 0 1 -0.22,0.67 1,1 0 0 1 -0.62,0.18 0.94,0.94 0 0 1 -0.61,-0.18 0.82,0.82 0 0 1 -0.23,-0.67 V 12.2 a 0.72,0.72 0 0 1 0.24,-0.63 0.88,0.88 0 0 1 0.55,-0.16 1,1 0 0 1 0.6,0.16 0.72,0.72 0 0 1 0.24,0.63 v 1.88 l 0.25,-0.5 a 4.48,4.48 0 0 1 0.81,-1.11 4.72,4.72 0 0 1 1.34,-0.92 4.59,4.59 0 0 1 2,-0.4 4,4 0 0 1 2.46,0.8 3.81,3.81 0 0 1 1.3,2.23 c 0.1,-0.19 0.21,-0.4 0.35,-0.64 a 5.18,5.18 0 0 1 0.9,-1.1 5.25,5.25 0 0 1 1.42,-0.91 5,5 0 0 1 2,-0.38 4.41,4.41 0 0 1 1.6,0.28 3.36,3.36 0 0 1 1.27,0.84 4,4 0 0 1 0.85,1.43 5.82,5.82 0 0 1 0.32,2 v 8.33 c 0.04,0.35 -0.1,0.74 -0.75,0.74 z"
         class="cls-1" />
      <path
         style="fill:#c7c8ca"
         id="path16"
         d="m 122,25 a 6.62,6.62 0 0 1 -2.69,-0.51 5.14,5.14 0 0 1 -1.94,-1.43 6.32,6.32 0 0 1 -1.18,-2.19 9.24,9.24 0 0 1 -0.4,-2.82 8.56,8.56 0 0 1 0.43,-2.77 6.28,6.28 0 0 1 1.23,-2.2 5.8,5.8 0 0 1 1.94,-1.43 6.09,6.09 0 0 1 2.53,-0.52 5.94,5.94 0 0 1 2.52,0.51 5.4,5.4 0 0 1 1.8,1.36 6,6 0 0 1 1.11,2.05 8.26,8.26 0 0 1 0.38,2.52 0.67,0.67 0 0 1 -0.23,0.56 1,1 0 0 1 -0.56,0.16 h -9.43 a 6.11,6.11 0 0 0 1.19,3.79 4,4 0 0 0 3.3,1.41 4.88,4.88 0 0 0 1.43,-0.18 3.88,3.88 0 0 0 1,-0.48 2.91,2.91 0 0 0 0.68,-0.62 5.92,5.92 0 0 0 0.48,-0.64 2.72,2.72 0 0 1 0.27,-0.32 0.5,0.5 0 0 1 0.38,-0.13 1.09,1.09 0 0 1 0.56,0.16 0.58,0.58 0 0 1 0.3,0.52 1.3,1.3 0 0 1 -0.27,0.73 6.78,6.78 0 0 1 -0.61,0.78 4.36,4.36 0 0 1 -1,0.81 6,6 0 0 1 -1.39,0.64 A 6.26,6.26 0 0 1 122,25 Z m 4,-8.07 a 6.66,6.66 0 0 0 -0.36,-1.57 4.55,4.55 0 0 0 -0.8,-1.39 3.88,3.88 0 0 0 -1.26,-1 4,4 0 0 0 -1.77,-0.36 4.33,4.33 0 0 0 -1.79,0.34 3.81,3.81 0 0 0 -1.3,0.95 4.53,4.53 0 0 0 -0.82,1.4 6,6 0 0 0 -0.37,1.58 z"
         class="cls-1" />
      <path
         style="fill:#c7c8ca"
         id="path18"
         d="m 135.65,25 a 3.3,3.3 0 0 1 -2.51,-0.85 3.35,3.35 0 0 1 -0.81,-2.42 v -8.64 h -1.51 a 0.54,0.54 0 0 1 -0.5,-0.23 1.1,1.1 0 0 1 -0.11,-0.51 1.13,1.13 0 0 1 0.11,-0.53 0.52,0.52 0 0 1 0.5,-0.23 h 1.51 V 8.77 a 2,2 0 0 1 0.07,-0.65 0.63,0.63 0 0 1 0.29,-0.35 1.56,1.56 0 0 1 0.42,-0.19 1.58,1.58 0 0 1 0.45,-0.06 c 0.17,0 0.45,0.07 0.45,0.54 v 3.53 h 2.81 a 0.51,0.51 0 0 1 0.5,0.23 1,1 0 0 1 0.12,0.53 1,1 0 0 1 -0.12,0.51 0.53,0.53 0 0 1 -0.5,0.23 H 134 v 8.15 a 2.79,2.79 0 0 0 0.42,1.79 1.9,1.9 0 0 0 1.45,0.46 2.72,2.72 0 0 0 0.71,-0.08 2.78,2.78 0 0 0 0.49,-0.21 l 0.26,-0.12 a 0.66,0.66 0 0 1 0.3,-0.07 0.55,0.55 0 0 1 0.45,0.27 1,1 0 0 1 0.19,0.59 c 0,0.39 -0.27,0.68 -0.79,0.88 A 5.5,5.5 0 0 1 135.65,25 Z"
         class="cls-1" />
      <path
         style="fill:#c7c8ca"
         id="path20"
         d="m 142.47,24.77 a 0.92,0.92 0 0 1 -0.59,-0.18 0.83,0.83 0 0 1 -0.22,-0.67 V 12.2 a 0.77,0.77 0 0 1 0.21,-0.63 0.86,0.86 0 0 1 0.55,-0.16 0.93,0.93 0 0 1 0.58,0.16 0.72,0.72 0 0 1 0.24,0.63 v 2 a 5.67,5.67 0 0 1 0.75,-1.11 5.57,5.57 0 0 1 1.16,-1 4.58,4.58 0 0 1 1.2,-0.55 4.31,4.31 0 0 1 1.13,-0.17 1.25,1.25 0 0 1 0.83,0.23 0.9,0.9 0 0 1 0.26,0.71 1,1 0 0 1 -0.23,0.73 1,1 0 0 1 -0.68,0.22 4,4 0 0 0 -3.17,1.33 6,6 0 0 0 -1.15,4 V 24 a 0.76,0.76 0 0 1 -0.25,0.67 1,1 0 0 1 -0.62,0.1 z"
         class="cls-1" />
      <path
         style="fill:#c7c8ca"
         id="path22"
         d="m 152.66,24.77 a 0.9,0.9 0 0 1 -0.6,-0.18 0.85,0.85 0 0 1 -0.21,-0.67 V 12.25 a 0.88,0.88 0 0 1 0.21,-0.67 1,1 0 0 1 0.6,-0.17 1,1 0 0 1 0.62,0.17 0.85,0.85 0 0 1 0.23,0.67 v 11.67 a 0.83,0.83 0 0 1 -0.23,0.67 1,1 0 0 1 -0.62,0.18 z m 0,-15.87 a 1.12,1.12 0 0 1 -1.14,-1.2 1.19,1.19 0 0 1 0.34,-0.92 1.23,1.23 0 0 1 1.61,0 1.19,1.19 0 0 1 0.34,0.92 1.12,1.12 0 0 1 -1.15,1.2 z"
         class="cls-1" />
      <polygon
         style="fill:#a7a9ac"
         id="polygon24"
         points="8.6,3.26 28.48,14.83 28.48,8.22 14.24,0 "
         class="cls-2" />
      <polygon
         style="fill:#a7a9ac"
         id="polygon26"
         points="19.9,29.62 0,18.03 0,24.66 14.24,32.88 "
         class="cls-2" />
      <polygon
         style="fill:#d1d3d4"
         id="polygon28"
         points="25.03,26.66 28.48,24.66 28.48,20.77 3.47,6.22 0,8.22 0,12.09 "
         class="cls-3" />
      <path
         style="fill:#ffffff"
         id="path30"
         d="m 164.24,25 a 3.34,3.34 0 0 1 -2.52,-0.86 3.34,3.34 0 0 1 -0.82,-2.43 v -8.52 h -1.45 a 0.59,0.59 0 0 1 -0.54,-0.25 1.07,1.07 0 0 1 -0.12,-0.53 1.09,1.09 0 0 1 0.12,-0.55 0.58,0.58 0 0 1 0.54,-0.26 h 1.45 V 8.85 a 2.15,2.15 0 0 1 0.07,-0.66 0.67,0.67 0 0 1 0.31,-0.37 1.66,1.66 0 0 1 0.43,-0.2 2.06,2.06 0 0 1 0.45,0 c 0.15,0 0.5,0 0.5,0.57 v 3.41 h 2.75 a 0.56,0.56 0 0 1 0.53,0.25 1.16,1.16 0 0 1 0.12,0.56 1.07,1.07 0 0 1 -0.12,0.53 0.56,0.56 0 0 1 -0.53,0.25 h -2.75 v 8 a 2.74,2.74 0 0 0 0.41,1.75 1.85,1.85 0 0 0 1.4,0.44 2.51,2.51 0 0 0 0.69,-0.08 2.39,2.39 0 0 0 0.49,-0.2 l 0.25,-0.12 a 0.79,0.79 0 0 1 0.32,-0.08 0.6,0.6 0 0 1 0.49,0.29 1,1 0 0 1 0.19,0.62 c 0,0.4 -0.27,0.71 -0.82,0.91 A 5.42,5.42 0 0 1 164.24,25 Z"
         class="cls-4" />
      <path
         style="fill:#ffffff"
         id="path32"
         d="m 175.18,25 a 6.6,6.6 0 0 1 -2.68,-0.51 5.17,5.17 0 0 1 -1.94,-1.43 6.3,6.3 0 0 1 -1.19,-2.2 9.44,9.44 0 0 1 -0.4,-2.81 8.83,8.83 0 0 1 0.43,-2.77 6.24,6.24 0 0 1 1.23,-2.19 5.89,5.89 0 0 1 1.94,-1.44 6.13,6.13 0 0 1 2.54,-0.52 5.91,5.91 0 0 1 2.52,0.51 5.31,5.31 0 0 1 1.84,1.38 6,6 0 0 1 1.12,2.06 8.26,8.26 0 0 1 0.37,2.52 0.69,0.69 0 0 1 -0.24,0.58 1,1 0 0 1 -0.59,0.17 h -9.32 a 6.06,6.06 0 0 0 1.17,3.7 4,4 0 0 0 3.2,1.34 4.81,4.81 0 0 0 1.42,-0.18 3.87,3.87 0 0 0 1,-0.46 3.25,3.25 0 0 0 0.66,-0.61 7.09,7.09 0 0 0 0.48,-0.64 2.72,2.72 0 0 1 0.27,-0.32 0.54,0.54 0 0 1 0.41,-0.15 1.17,1.17 0 0 1 0.58,0.17 0.63,0.63 0 0 1 0.32,0.56 1.27,1.27 0 0 1 -0.28,0.74 6.61,6.61 0 0 1 -0.6,0.79 4.68,4.68 0 0 1 -1,0.81 6,6 0 0 1 -1.39,0.64 6.28,6.28 0 0 1 -1.87,0.26 z m 4,-8.13 a 6.11,6.11 0 0 0 -0.35,-1.49 4.29,4.29 0 0 0 -0.78,-1.37 3.74,3.74 0 0 0 -1.24,-0.94 3.89,3.89 0 0 0 -1.74,-0.35 4.27,4.27 0 0 0 -1.77,0.34 3.73,3.73 0 0 0 -1.3,0.94 4.56,4.56 0 0 0 -0.81,1.37 5.93,5.93 0 0 0 -0.35,1.51 z"
         class="cls-4" />
      <path
         style="fill:#ffffff"
         id="path34"
         d="m 190.13,25 a 6.55,6.55 0 0 1 -2.69,-0.51 5,5 0 0 1 -1.9,-1.43 6.28,6.28 0 0 1 -1.1,-2.21 10.41,10.41 0 0 1 -0.36,-2.82 9.13,9.13 0 0 1 0.4,-2.79 6.12,6.12 0 0 1 1.18,-2.18 5.58,5.58 0 0 1 1.9,-1.42 6.73,6.73 0 0 1 4.49,-0.23 5.88,5.88 0 0 1 1.4,0.67 4.7,4.7 0 0 1 1,0.9 5.5,5.5 0 0 1 0.59,0.9 l 0.14,0.34 a 1,1 0 0 1 0.08,0.41 0.77,0.77 0 0 1 -0.31,0.64 1,1 0 0 1 -0.62,0.24 0.71,0.71 0 0 1 -0.39,-0.1 1.11,1.11 0 0 1 -0.38,-0.49 l -0.31,-0.54 a 3.07,3.07 0 0 0 -0.6,-0.7 3.93,3.93 0 0 0 -1,-0.61 3.75,3.75 0 0 0 -1.48,-0.25 3.66,3.66 0 0 0 -3.17,1.41 6.29,6.29 0 0 0 -1,3.77 6.63,6.63 0 0 0 1,4 3.63,3.63 0 0 0 3.13,1.42 3.83,3.83 0 0 0 1.39,-0.22 3.68,3.68 0 0 0 0.95,-0.51 2.56,2.56 0 0 0 0.59,-0.6 l 0.38,-0.58 a 2.51,2.51 0 0 1 0.39,-0.56 0.64,0.64 0 0 1 0.44,-0.17 1,1 0 0 1 0.63,0.24 0.73,0.73 0 0 1 0.3,0.59 1.39,1.39 0 0 1 -0.19,0.65 c -0.11,0.18 -0.27,0.42 -0.49,0.73 a 5.12,5.12 0 0 1 -0.93,0.94 5.54,5.54 0 0 1 -1.45,0.81 5.39,5.39 0 0 1 -2.01,0.26 z"
         class="cls-4" />
      <path
         style="fill:#ffffff"
         id="path36"
         d="m 209.12,24.79 c -0.81,0 -0.93,-0.47 -0.93,-0.76 v -7.71 a 4.1,4.1 0 0 0 -0.67,-2.55 2.84,2.84 0 0 0 -2.38,-0.86 3.81,3.81 0 0 0 -2,0.49 4.21,4.21 0 0 0 -1.36,1.26 5.5,5.5 0 0 0 -0.78,1.76 7.63,7.63 0 0 0 -0.25,1.93 v 5.56 a 0.85,0.85 0 0 1 -0.24,0.69 1,1 0 0 1 -0.64,0.19 0.93,0.93 0 0 1 -0.63,-0.19 0.82,0.82 0 0 1 -0.25,-0.69 V 7.36 a 0.76,0.76 0 0 1 0.28,-0.67 1.08,1.08 0 0 1 0.6,-0.16 1.14,1.14 0 0 1 0.63,0.16 0.76,0.76 0 0 1 0.28,0.67 v 6.49 l 0.2,-0.35 a 4.65,4.65 0 0 1 0.92,-1.07 5.08,5.08 0 0 1 1.46,-0.89 5.43,5.43 0 0 1 2.07,-0.37 4.74,4.74 0 0 1 3.26,1.12 4.44,4.44 0 0 1 1.31,3.47 V 24 c 0,0.52 -0.34,0.79 -0.88,0.79 z"
         class="cls-4" />
      <path
         style="fill:#ffffff"
         id="path38"
         d="m 224.91,24.79 c -0.81,0 -0.93,-0.47 -0.93,-0.76 v -7.71 a 4.17,4.17 0 0 0 -0.67,-2.55 2.85,2.85 0 0 0 -2.39,-0.86 3.8,3.8 0 0 0 -2,0.49 4.21,4.21 0 0 0 -1.36,1.26 5.5,5.5 0 0 0 -0.78,1.76 7.63,7.63 0 0 0 -0.25,1.93 v 5.56 a 0.85,0.85 0 0 1 -0.24,0.69 1.17,1.17 0 0 1 -1.28,0 0.85,0.85 0 0 1 -0.24,-0.69 V 12.26 a 0.79,0.79 0 0 1 0.25,-0.67 1,1 0 0 1 0.58,-0.16 1,1 0 0 1 0.61,0.16 0.76,0.76 0 0 1 0.27,0.67 V 14 c 0.06,-0.12 0.13,-0.24 0.21,-0.38 a 4.83,4.83 0 0 1 1,-1.11 6.11,6.11 0 0 1 1.48,-0.92 5.11,5.11 0 0 1 2.08,-0.4 4.74,4.74 0 0 1 3.26,1.12 4.44,4.44 0 0 1 1.25,3.47 V 24 c -0.02,0.52 -0.31,0.79 -0.85,0.79 z"
         class="cls-4" />
      <path
         style="fill:#ffffff"
         id="path40"
         d="m 236,25 a 6.82,6.82 0 0 1 -2.56,-0.47 5.47,5.47 0 0 1 -2,-1.37 6.28,6.28 0 0 1 -1.22,-2.16 8.86,8.86 0 0 1 -0.45,-2.92 8.7,8.7 0 0 1 0.45,-2.9 6.33,6.33 0 0 1 1.27,-2.18 5.38,5.38 0 0 1 2,-1.37 7.21,7.21 0 0 1 5.12,0 5.3,5.3 0 0 1 2,1.37 6.33,6.33 0 0 1 1.27,2.18 8.74,8.74 0 0 1 0.45,2.9 8.86,8.86 0 0 1 -0.45,2.92 6.28,6.28 0 0 1 -1.27,2.19 5.37,5.37 0 0 1 -2,1.37 A 6.82,6.82 0 0 1 236,25 Z m 0,-12.26 a 4,4 0 0 0 -3.24,1.38 6.13,6.13 0 0 0 -1.14,3.93 6.13,6.13 0 0 0 1.17,3.95 4.54,4.54 0 0 0 6.5,0 6.08,6.08 0 0 0 1.14,-3.95 6.07,6.07 0 0 0 -1.14,-3.93 4,4 0 0 0 -3.29,-1.34 z"
         class="cls-4" />
      <path
         style="fill:#ffffff"
         id="path42"
         d="m 247.2,24.79 a 1,1 0 0 1 -0.63,-0.19 0.88,0.88 0 0 1 -0.23,-0.69 V 7.18 a 0.92,0.92 0 0 1 0.22,-0.7 0.9,0.9 0 0 1 0.64,-0.21 1,1 0 0 1 0.64,0.2 0.89,0.89 0 0 1 0.24,0.71 v 16.73 a 0.82,0.82 0 0 1 -0.25,0.69 0.93,0.93 0 0 1 -0.63,0.19 z"
         class="cls-4" />
      <path
         style="fill:#ffffff"
         id="path44"
         d="m 258.37,25 a 6.82,6.82 0 0 1 -2.56,-0.47 5.38,5.38 0 0 1 -2,-1.37 6.28,6.28 0 0 1 -1.25,-2.16 8.86,8.86 0 0 1 -0.45,-2.92 8.7,8.7 0 0 1 0.45,-2.9 6.33,6.33 0 0 1 1.27,-2.18 5.38,5.38 0 0 1 2,-1.37 7.21,7.21 0 0 1 5.12,0 5.37,5.37 0 0 1 2,1.37 6.33,6.33 0 0 1 1.27,2.18 8.74,8.74 0 0 1 0.45,2.9 8.86,8.86 0 0 1 -0.47,2.92 6.28,6.28 0 0 1 -1.27,2.19 5.37,5.37 0 0 1 -2,1.37 6.82,6.82 0 0 1 -2.56,0.44 z m 0,-12.26 a 4,4 0 0 0 -3.24,1.38 6.07,6.07 0 0 0 -1.13,3.97 6.08,6.08 0 0 0 1.13,3.91 4,4 0 0 0 3.24,1.37 4,4 0 0 0 3.26,-1.37 6.13,6.13 0 0 0 1.14,-3.95 6.13,6.13 0 0 0 -1.14,-3.93 4,4 0 0 0 -3.26,-1.34 z"
         class="cls-4" />
      <path
         style="fill:#ffffff"
         id="path46"
         d="m 273.93,30.27 a 9.06,9.06 0 0 1 -2,-0.21 8.11,8.11 0 0 1 -1.57,-0.49 5.31,5.31 0 0 1 -1,-0.52 0.92,0.92 0 0 1 -0.42,-0.78 1.12,1.12 0 0 1 0.24,-0.67 0.71,0.71 0 0 1 0.59,-0.33 1.11,1.11 0 0 1 0.57,0.18 6.61,6.61 0 0 0 0.57,0.34 9.9,9.9 0 0 0 1.25,0.58 5,5 0 0 0 1.75,0.27 5.57,5.57 0 0 0 1.6,-0.23 3.57,3.57 0 0 0 1.32,-0.7 3.4,3.4 0 0 0 0.9,-1.27 5,5 0 0 0 0.33,-1.92 v -1.71 a 4.3,4.3 0 0 1 -1.63,1.55 5.9,5.9 0 0 1 -2.8,0.63 5.65,5.65 0 0 1 -2.45,-0.52 5.3,5.3 0 0 1 -1.77,-1.47 6.16,6.16 0 0 1 -1.12,-2.18 9.69,9.69 0 0 1 -0.37,-2.78 9.34,9.34 0 0 1 0.39,-2.78 6.15,6.15 0 0 1 1.13,-2.19 5.17,5.17 0 0 1 1.84,-1.42 5.77,5.77 0 0 1 2.47,-0.51 5.46,5.46 0 0 1 2.79,0.67 5.59,5.59 0 0 1 1.58,1.41 v -0.94 a 0.89,0.89 0 0 1 0.24,-0.71 1,1 0 0 1 0.64,-0.2 0.9,0.9 0 0 1 0.63,0.2 0.92,0.92 0 0 1 0.23,0.71 v 12.36 a 5.29,5.29 0 0 1 -1.63,4.22 6.31,6.31 0 0 1 -4.3,1.41 z m -0.11,-17.44 a 3.93,3.93 0 0 0 -1.76,0.38 3.39,3.39 0 0 0 -1.25,1.07 5,5 0 0 0 -0.76,1.68 9.19,9.19 0 0 0 -0.25,2.18 8,8 0 0 0 0.28,2.15 4.79,4.79 0 0 0 0.8,1.65 3.53,3.53 0 0 0 1.31,1 4.21,4.21 0 0 0 1.79,0.37 4,4 0 0 0 1.81,-0.39 3.77,3.77 0 0 0 1.32,-1.09 4.86,4.86 0 0 0 0.81,-1.68 7.74,7.74 0 0 0 0.28,-2.15 5.7,5.7 0 0 0 -1.2,-3.81 4,4 0 0 0 -3.18,-1.36 z"
         class="cls-4" />
      <path
         style="fill:#ffffff"
         id="path48"
         d="m 287,30 a 0.94,0.94 0 0 1 -0.61,-0.21 0.74,0.74 0 0 1 -0.27,-0.59 2.19,2.19 0 0 1 0.19,-0.69 l 1.88,-4.21 -4.8,-11.47 c 0,-0.09 -0.07,-0.19 -0.1,-0.31 a 1.12,1.12 0 0 1 -0.06,-0.35 0.67,0.67 0 0 1 0.37,-0.62 1.33,1.33 0 0 1 0.71,-0.19 c 0.29,0 0.52,0.22 0.7,0.65 l 4.15,10 4.36,-10 c 0.16,-0.41 0.39,-0.62 0.69,-0.62 a 1.28,1.28 0 0 1 0.69,0.19 0.63,0.63 0 0 1 0.35,0.56 1,1 0 0 1 -0.06,0.31 l -0.1,0.32 -7.27,16.63 A 0.87,0.87 0 0 1 287,30 Z"
         class="cls-4" />
    </g>
  </g>
</svg>
